# xmcd
#
# Track frame offsets:
#	150
#	15070
#	30232
#	50325
#	65750
#	77475
#	92985
#	109317
#	122117
#	132370
#	146490
#	161847
#	175387
#	191792
#
# Disc length: 2834 seconds
#
# Revision: 0
# Processed by: cddbd v1.4PL0 Copyright (c) Steve Scherf et al.
# Submitted via: dBpowerAMP V4.0
#
DISCID=bc0b100e
DTITLE=Diva Milva - GI-3038
DYEAR=1900
DGENRE=Italian
TTITLE0=Violino Tzingano 집시 바이올린
TTITLE1=Milord 각하
TTITLE2=Tango Italiano 이탈리안 탱고
TTITLE3=Nulla Rimpiangero (JE NE REGRETTE RIEN) 아무것도 후회하지 않아요
TTITLE4=Occhi Spagnoli (BLUE SPANISH EYES) 스페인의 눈
TTITLE5=Flamenco Rock 플라멩꼬 록
TTITLE6=La Cucaracha 바퀴벌레
TTITLE7=Quaggiu In Filanda 필란다 여기 아래
TTITLE8=Il Tango Delle Capinere 카삐네레 탱고
TTITLE9=Lungo La Strada 그 길을 따라서
TTITLE10=Exodus 출애굽기
TTITLE11=Etmaintenant (CHE MI FARO) 무엇을 해야 하나
TTITLE12=Addio Lugano Bella 안녕 아름다운 루가노
TTITLE13=Bonus Track: Title undefinied
EXTD=
EXTT0=
EXTT1=
EXTT2=
EXTT3=
EXTT4=
EXTT5=
EXTT6=
EXTT7=
EXTT8=
EXTT9=
EXTT10=
EXTT11=
EXTT12=
EXTT13=
PLAYORDER=
